<?xml version="1.0" encoding="UTF-8" standalone="no"?>
<!-- Created with Inkscape (http://www.inkscape.org/) -->

<svg
   xmlns:dc="http://purl.org/dc/elements/1.1/"
   xmlns:cc="http://creativecommons.org/ns#"
   xmlns:rdf="http://www.w3.org/1999/02/22-rdf-syntax-ns#"
   xmlns:svg="http://www.w3.org/2000/svg"
   xmlns="http://www.w3.org/2000/svg"
   xmlns:xlink="http://www.w3.org/1999/xlink"
   xmlns:sodipodi="http://sodipodi.sourceforge.net/DTD/sodipodi-0.dtd"
   xmlns:inkscape="http://www.inkscape.org/namespaces/inkscape"
   width="140"
   height="20"
   viewBox="0 0 37.041665 5.2916665"
   version="1.1"
   id="svg6686"
   inkscape:version="0.92.1 r15371"
   sodipodi:docname="powered.svg">
  <defs
     id="defs6680">
    <linearGradient
       inkscape:collect="always"
       xlink:href="#b"
       id="linearGradient6082"
       gradientUnits="userSpaceOnUse"
       gradientTransform="matrix(0.71862239,0,0,0.10298889,117.03786,117.53929)"
       x1="0"
       y1="0"
       x2="0"
       y2="51.380932" />
    <linearGradient
       id="b"
       x2="0"
       y2="51.380932"
       gradientTransform="scale(2.5690465,0.38924947)"
       x1="0"
       y1="0"
       gradientUnits="userSpaceOnUse">
      <stop
         offset="0"
         stop-color="#bbb"
         stop-opacity=".1"
         id="stop5965" />
      <stop
         offset="1"
         stop-opacity=".1"
         id="stop5967" />
    </linearGradient>
    <clipPath
       clipPathUnits="userSpaceOnUse"
       id="clipPath4538">
      <rect
         rx="0.81666088"
         y="117.54222"
         x="117.03785"
         height="5.2916665"
         width="36.916603"
         id="rect4540"
         style="opacity:1;fill:#000000;fill-opacity:1;fill-rule:nonzero;stroke:none;stroke-width:1.70000017;stroke-linecap:butt;stroke-linejoin:round;stroke-miterlimit:4;stroke-dasharray:3.40000018, 1.70000009;stroke-dashoffset:0;stroke-opacity:1;paint-order:normal" />
    </clipPath>
  </defs>
  <sodipodi:namedview
     id="base"
     pagecolor="#ffffff"
     bordercolor="#666666"
     borderopacity="1.0"
     inkscape:pageopacity="0.0"
     inkscape:pageshadow="2"
     inkscape:zoom="7.919596"
     inkscape:cx="116.10639"
     inkscape:cy="36.519745"
     inkscape:document-units="mm"
     inkscape:current-layer="layer1"
     showgrid="false"
     inkscape:window-width="3124"
     inkscape:window-height="1461"
     inkscape:window-x="2367"
     inkscape:window-y="154"
     inkscape:window-maximized="0"
     fit-margin-top="0"
     fit-margin-left="0"
     fit-margin-right="0"
     fit-margin-bottom="0"
     units="px" />
  <metadata
     id="metadata6683">
    <rdf:RDF>
      <cc:Work
         rdf:about="">
        <dc:format>image/svg+xml</dc:format>
        <dc:type
           rdf:resource="http://purl.org/dc/dcmitype/StillImage" />
        <dc:title></dc:title>
      </cc:Work>
    </rdf:RDF>
  </metadata>
  <g
     inkscape:label="Layer 1"
     inkscape:groupmode="layer"
     id="layer1"
     transform="translate(-117.03786,-117.53928)">
    <g
       id="g4527"
       clip-path="url(#clipPath4538)"
       transform="matrix(1.003388,0,0,1.0005555,-0.3965266,-0.06822904)"
       style="stroke-width:0.99803311">
      <g
         id="g4512"
         style="stroke-width:0.99803311">
        <path
           style="fill:#555555;stroke-width:0.26406288"
           inkscape:connector-curvature="0"
           d="m 117.03787,117.54223 h 19.62505 v 5.28484 h -19.62505 z"
           id="path4610" />
        <path
           style="fill:#ececec;stroke-width:0.26406291"
           inkscape:connector-curvature="0"
           d="m 136.66292,117.54223 h 17.29843 v 5.28484 h -17.29843 z"
           id="path4612" />
      </g>
      <g
         id="g4515"
         style="stroke-width:0.99803311">
        <path
           d="m 117.03786,117.53929 h 36.92349 v 5.29166 h -36.92349 z"
           id="path5977"
           style="fill:url(#linearGradient6082);stroke-width:0.26406285"
           inkscape:connector-curvature="0" />
      </g>
      <g
         id="g4508"
         style="stroke-width:0.99803311">
        <g
           id="g7262"
           transform="translate(0.32228589,1.1024868)"
           style="stroke-width:0.99803311">
          <text
             id="text4618"
             y="120.19162"
             x="126.44209"
             style="font-size:2.81858349px;font-family:'DejaVu Sans', Verdana, Geneva, sans-serif;text-anchor:middle;fill:#010101;fill-opacity:0.3;stroke-width:0.26406291">powered by</text>
          <text
             style="font-size:2.81858349px;font-family:'DejaVu Sans', Verdana, Geneva, sans-serif;text-anchor:middle;fill:#ffffff;stroke-width:0.26406291"
             id="text4620"
             y="119.92738"
             x="126.44209">powered by</text>
        </g>
        <path
           style="fill:#cf2027;fill-opacity:1;fill-rule:evenodd;stroke:none;stroke-width:1.67366278"
           id="path2854"
           d="m 141.56168,118.88959 -0.4683,0.10309 -0.28864,1.53743 c -0.0773,0.4187 0.03,0.59789 0.40645,0.59789 0.1091,1e-5 0.24328,-0.016 0.35933,-0.0442 l 0.0412,-0.35932 c -0.0633,0.0141 -0.12994,0.0236 -0.21795,0.0236 -0.1442,0 -0.17118,-0.0541 -0.13253,-0.26508 l 0.13253,-0.70687 c 0.007,-0.0351 0.006,-0.0942 0.006,-0.0942 1e-5,-10e-6 0.0415,0.0147 0.0942,0.0147 h 0.30926 l 0.0707,-0.35049 h -0.32987 c -0.0493,0 -0.0825,0.0147 -0.0825,0.0147 0,0 0.0225,-0.0461 0.0294,-0.0884 z m -1.07797,0.009 -0.45652,0.0943 -0.056,0.29747 c -0.007,0.0386 0,0.0707 0,0.0707 0,0 -0.0303,-0.0147 -0.0795,-0.0147 h -0.1826 l -0.0707,0.34754 h 0.1885 c 0.0423,0 0.0825,-0.0147 0.0825,-0.0147 0,0 -0.0247,0.0468 -0.0353,0.10309 l -0.13843,0.7481 c -0.0809,0.4187 0.0242,0.59789 0.40056,0.59789 0.10909,0 0.24316,-0.016 0.35932,-0.0442 l 0.0412,-0.35933 c -0.0633,0.0141 -0.13007,0.0236 -0.21795,0.0236 -0.14432,0 -0.17118,-0.0541 -0.13254,-0.26507 l 0.13254,-0.70687 c 0.0105,-0.0493 0,-0.0972 0,-0.0972 0,0 0.045,0.0147 0.0942,0.0147 h 0.29453 l 0.0707,-0.34755 h -0.30631 c -0.0388,0 -0.0854,0.0147 -0.0854,0.0147 0,1e-5 0.0166,-0.0384 0.0236,-0.0736 z m 6.75058,0.4035 c -0.2086,0.007 -0.3759,0.17753 -0.53898,0.5007 h -0.0353 c 0.0634,-0.19344 0.10792,-0.3228 0.13254,-0.45652 h -0.42707 c -0.0352,0.22514 -0.10096,0.58729 -0.15021,0.83352 l -0.17671,0.91303 h 0.43884 l 0.0736,-0.37994 c 0.11604,-0.59105 0.42365,-1.04993 0.68036,-0.96899 l 0.0942,-0.43296 c -0.0317,-0.006 -0.0615,-0.01 -0.0913,-0.009 z m 5.12185,0.006 c -0.26732,0 -0.48739,0.14714 -0.65975,0.49186 l -0.0353,-0.003 c 0.0668,-0.211 0.0932,-0.31338 0.11781,-0.45062 h -0.43296 c -0.0351,0.22171 -0.0939,0.53391 -0.15021,0.83645 l -0.29747,1.56689 h 0.43885 l 0.0972,-0.52426 c 0.0105,-0.0528 0.009,-0.12664 0.009,-0.12664 0.0737,0.0177 0.13996,0.0265 0.20323,0.0265 0.76695,0 1.12215,-0.61097 1.12215,-1.27236 -1e-5,-0.37287 -0.14503,-0.54488 -0.41234,-0.54488 z m -13.56008,0.003 c -0.56278,0 -1.05146,0.46112 -1.05146,1.19284 0,0.38348 0.20193,0.6244 0.68036,0.6244 0.54876,0 1.05735,-0.45993 1.05735,-1.18106 0,-0.36226 -0.19721,-0.63618 -0.68625,-0.63618 z m 4.04387,0 c -0.5629,0 -1.05146,0.46112 -1.05146,1.19284 0,0.38348 0.20487,0.6244 0.6833,0.6244 0.54888,0 1.05441,-0.45993 1.05441,-1.18106 0,-0.36226 -0.19733,-0.63618 -0.68625,-0.63618 z m 5.44877,0 c -0.5629,0 -1.05146,0.46112 -1.05146,1.19284 0,0.38348 0.20487,0.6244 0.6833,0.6244 0.54877,0 1.05441,-0.45993 1.05441,-1.18106 0,-0.36226 -0.19733,-0.63618 -0.68625,-0.63618 z m -2.93644,0.003 c -0.76695,0 -1.12215,0.61097 -1.12215,1.27236 0,0.37287 0.14502,0.54782 0.41234,0.54782 0.32716,0 0.54911,-0.2745 0.68625,-0.52426 l 0.0383,0.003 c -0.0528,0.12311 -0.1197,0.30277 -0.14432,0.41528 -0.0774,0.33423 -0.25259,0.43885 -0.58317,0.43885 -0.32021,0 -0.48892,-0.0736 -0.48892,-0.0736 l -0.0972,0.38288 c 0.13713,0.0457 0.30961,0.0736 0.50659,0.0736 0.68248,0 0.98949,-0.28675 1.08091,-0.76872 l 0.32988,-1.71415 c -0.19698,-0.0388 -0.4074,-0.053 -0.61851,-0.053 z m 3.87304,0.0324 -0.0618,0.34754 h 0.18556 c 0.0423,0 0.0854,-0.0177 0.0854,-0.0177 -1e-5,0 -0.0278,0.0527 -0.0383,0.10898 l -0.15021,0.76577 c -0.0634,0.3413 0.0394,0.58317 0.377,0.58317 0.33423,0 0.56326,-0.27297 0.7216,-0.58611 l 0.0353,0.003 c -0.10544,0.26732 -0.15033,0.43637 -0.16788,0.54193 h 0.42706 c 0.0352,-0.21111 0.10745,-0.59435 0.15316,-0.83351 l 0.17377,-0.91304 h -0.69509 l -0.0648,0.34755 h 0.1885 c 0.0422,0 0.0883,-0.0177 0.0883,-0.0177 0,0 -0.0306,0.0521 -0.0412,0.11192 -0.0774,0.40798 -0.3916,0.95722 -0.62734,0.95722 -0.11251,0 -0.14821,-0.0888 -0.10603,-0.30337 l 0.20911,-1.09564 z m -3.94962,0.32103 c 0.0774,0 0.1409,0.009 0.19734,0.0236 l -0.0206,0.11192 c -0.0703,0.36934 -0.38359,0.94249 -0.63323,0.94249 -0.088,1e-5 -0.13549,-0.0692 -0.13549,-0.24151 1e-5,-0.3658 0.18744,-0.83646 0.592,-0.83646 z m -6.54736,0.0265 c 0.20405,0 0.28864,0.10874 0.28864,0.30925 0,0.39055 -0.21713,0.73927 -0.53015,0.73927 -0.20405,0 -0.28275,-0.11934 -0.28275,-0.30926 0,-0.34825 0.1971,-0.73926 0.52426,-0.73926 z m 4.04682,0 c 0.20405,0 0.28864,0.10874 0.28864,0.30925 -1e-5,0.39055 -0.22008,0.73927 -0.5331,0.73927 -0.20405,0 -0.2798,-0.11934 -0.2798,-0.30926 0,-0.34825 0.19709,-0.73926 0.52426,-0.73926 z m 5.44877,0 c 0.20405,0 0.28863,0.10874 0.28863,0.30925 0,0.39055 -0.22007,0.73927 -0.53309,0.73927 -0.20405,0 -0.2798,-0.11934 -0.2798,-0.30926 0,-0.34825 0.19709,-0.73926 0.52426,-0.73926 z m 3.95551,0 c 0.0845,0 0.13548,0.0691 0.13548,0.24151 0,0.3658 -0.18803,0.83941 -0.58906,0.83941 -0.0634,0 -0.13819,-0.0148 -0.19438,-0.0324 l 0.0206,-0.11192 c 0.0703,-0.36227 0.37759,-0.9366 0.62734,-0.9366 z"
           inkscape:connector-curvature="0" />
      </g>
    </g>
  </g>
</svg>
