<?xml version="1.0" encoding="UTF-8" standalone="no"?>
<!-- Created with Inkscape (http://www.inkscape.org/) -->

<svg
   xmlns:dc="http://purl.org/dc/elements/1.1/"
   xmlns:cc="http://creativecommons.org/ns#"
   xmlns:rdf="http://www.w3.org/1999/02/22-rdf-syntax-ns#"
   xmlns:svg="http://www.w3.org/2000/svg"
   xmlns="http://www.w3.org/2000/svg"
   xmlns:xlink="http://www.w3.org/1999/xlink"
   xmlns:sodipodi="http://sodipodi.sourceforge.net/DTD/sodipodi-0.dtd"
   xmlns:inkscape="http://www.inkscape.org/namespaces/inkscape"
   width="133.22842mm"
   height="19.999996mm"
   viewBox="0 0 133.22842 19.999996"
   version="1.1"
   id="svg8"
   sodipodi:docname="powered.svg"
   inkscape:version="0.92.1 r15371">
  <defs
     id="defs2">
    <linearGradient
       id="b"
       x2="0"
       y2="51.380932"
       gradientTransform="scale(2.5690465,0.38924947)"
       x1="0"
       y1="0"
       gradientUnits="userSpaceOnUse">
      <stop
         offset="0"
         stop-color="#bbb"
         stop-opacity=".1"
         id="stop5965" />
      <stop
         offset="1"
         stop-opacity=".1"
         id="stop5967" />
    </linearGradient>
    <linearGradient
       inkscape:collect="always"
       xlink:href="#b"
       id="linearGradient6082"
       gradientUnits="userSpaceOnUse"
       gradientTransform="matrix(0.68752948,0,0,0.10306442,24.128234,50.174716)"
       x1="0"
       y1="0"
       x2="0"
       y2="51.380932" />
    <linearGradient
       inkscape:collect="always"
       xlink:href="#b"
       id="linearGradient6084"
       gradientUnits="userSpaceOnUse"
       gradientTransform="matrix(3.4668563,0,0,0.38924947,-10.259444,0.08014957)"
       x1="0"
       y1="0"
       x2="0"
       y2="51.380932" />
    <clipPath
       clipPathUnits="userSpaceOnUse"
       id="clipPath6103">
      <rect
         style="opacity:1;fill:#000000;fill-opacity:1;fill-rule:nonzero;stroke:none;stroke-width:1.70000005;stroke-linecap:butt;stroke-linejoin:round;stroke-miterlimit:4;stroke-dasharray:3.40000006, 1.70000001;stroke-dashoffset:0;stroke-opacity:1;paint-order:normal"
         id="rect6105"
         width="35.295532"
         height="5.2984991"
         x="24.127064"
         y="50.174717"
         rx="0.80217117" />
    </clipPath>
  </defs>
  <sodipodi:namedview
     id="base"
     pagecolor="#ffffff"
     bordercolor="#666666"
     borderopacity="1.0"
     inkscape:pageopacity="0"
     inkscape:pageshadow="2"
     inkscape:zoom="1.4"
     inkscape:cx="106.11988"
     inkscape:cy="-57.037446"
     inkscape:document-units="mm"
     inkscape:current-layer="layer1"
     showgrid="false"
     inkscape:snap-others="true"
     inkscape:snap-global="false"
     inkscape:window-width="1666"
     inkscape:window-height="1463"
     inkscape:window-x="2831"
     inkscape:window-y="593"
     inkscape:window-maximized="0"
     fit-margin-top="0"
     fit-margin-left="0"
     fit-margin-right="0"
     fit-margin-bottom="0" />
  <metadata
     id="metadata5">
    <rdf:RDF>
      <cc:Work
         rdf:about="">
        <dc:format>image/svg+xml</dc:format>
        <dc:type
           rdf:resource="http://purl.org/dc/dcmitype/StillImage" />
        <dc:title></dc:title>
      </cc:Work>
    </rdf:RDF>
  </metadata>
  <g
     inkscape:label="Layer 1"
     inkscape:groupmode="layer"
     id="layer1"
     transform="translate(-31.610612,-72.089151)">
    <g
       id="g6095"
       transform="matrix(3.7746539,0,0,3.7746539,-59.460703,-117.30304)"
       style="stroke-width:0.26492494"
       clip-path="url(#clipPath6103)">
      <path
         style="fill:#555555;stroke-width:0.07009471"
         inkscape:connector-curvature="0"
         d="m 24.127063,50.181548 h 17.99838 v 5.291667 h -17.99838 z"
         id="path4610" />
      <path
         style="fill:#ececec;stroke-width:0.07009472"
         inkscape:connector-curvature="0"
         d="m 42.125448,50.181548 h 17.320759 v 5.291667 H 42.125448 Z"
         id="path4612" />
      <path
         d="M 24.128234,50.174716 H 59.45414 v 5.295546 H 24.128234 Z"
         id="path5977"
         style="fill:url(#linearGradient6082);stroke-width:0.07009471"
         inkscape:connector-curvature="0" />
      <g
         id="g6064"
         style="stroke-width:0.26492494">
        <text
           id="text4618"
           y="53.938267"
           x="33.040127"
           style="font-size:2.82222223px;font-family:'DejaVu Sans', Verdana, Geneva, sans-serif;text-anchor:middle;fill:#010101;fill-opacity:0.3;stroke-width:0.07009472">powered by</text>
        <text
           style="font-size:2.82222223px;font-family:'DejaVu Sans', Verdana, Geneva, sans-serif;text-anchor:middle;fill:#ffffff;stroke-width:0.07009472"
           id="text4620"
           y="53.673683"
           x="33.040127">powered by</text>
        <path
           inkscape:connector-curvature="0"
           d="m 47.030537,51.530646 -0.468905,0.103218 -0.28901,1.539421 c -0.07738,0.419241 0.03008,0.598664 0.406973,0.598664 0.109236,2e-6 0.243595,-0.01604 0.359788,-0.04424 l 0.04129,-0.359789 c -0.06335,0.01416 -0.130113,0.02359 -0.218232,0.02359 -0.144388,2e-6 -0.1714,-0.05414 -0.132708,-0.265417 l 0.132708,-0.70778 c 0.0071,-0.03515 0.0059,-0.09437 0.0059,-0.09437 10e-7,-10e-7 0.04152,0.01474 0.09437,0.01474 h 0.309655 l 0.07078,-0.35094 h -0.330297 c -0.04931,-2e-6 -0.08257,0.01474 -0.08257,0.01474 0,1e-6 0.02253,-0.04612 0.02949,-0.08847 z m -1.079364,0.0088 -0.457109,0.09437 -0.05603,0.297857 c -0.007,0.03869 0,0.07078 0,0.07078 -2e-6,10e-7 -0.03032,-0.01474 -0.07963,-0.01474 h -0.182843 l -0.07078,0.347992 h 0.188741 c 0.04235,2e-6 0.08257,-0.01475 0.08257,-0.01475 2e-6,2e-6 -0.02477,0.04683 -0.03539,0.103218 l -0.138606,0.749067 c -0.08104,0.419241 0.02418,0.598664 0.401075,0.598664 0.109231,2e-6 0.243476,-0.01604 0.359788,-0.04424 l 0.04129,-0.359788 c -0.06335,0.01416 -0.130231,0.02359 -0.218232,0.02359 -0.144506,2e-6 -0.171401,-0.05414 -0.13271,-0.265417 l 0.13271,-0.70778 c 0.0105,-0.04931 0,-0.09732 0,-0.09732 0,2e-6 0.04506,0.01475 0.09437,0.01475 h 0.294908 l 0.07078,-0.347992 H 45.93937 c -0.03881,-2e-6 -0.08552,0.01474 -0.08552,0.01474 10e-7,1e-6 0.01663,-0.03846 0.02359,-0.07373 z m 6.759298,0.404025 c -0.208876,0.0067 -0.376391,0.177755 -0.539683,0.501344 h -0.03539 c 0.06347,-0.193696 0.108055,-0.32322 0.13271,-0.457108 H 51.84049 c -0.03527,0.225426 -0.101094,0.588047 -0.150402,0.83459 l -0.176945,0.914216 h 0.439412 l 0.07373,-0.380432 c 0.116195,-0.59182 0.424196,-1.051289 0.681237,-0.970248 l 0.09437,-0.433515 c -0.0317,-0.0057 -0.06158,-0.0098 -0.09142,-0.0088 z m 5.128455,0.0059 c -0.267657,10e-7 -0.488013,0.147336 -0.660595,0.492497 l -0.03539,-0.0029 c 0.06688,-0.211271 0.09331,-0.313782 0.117964,-0.451209 H 56.82739 c -0.03515,0.222005 -0.09402,0.534609 -0.150404,0.837539 L 56.37913,54.39421 h 0.439412 l 0.09732,-0.524936 c 0.0105,-0.05285 0.0088,-0.126811 0.0088,-0.126811 0.07385,0.0177 0.140142,0.02654 0.203488,0.02654 0.767941,0 1.1236,-0.611758 1.1236,-1.274004 -3e-6,-0.373356 -0.145213,-0.545581 -0.412872,-0.545581 z m -13.577579,0.0029 c -0.563512,-3e-6 -1.052822,0.461709 -1.052822,1.194379 0,0.383971 0.20219,0.625205 0.681238,0.625205 0.549473,2e-6 1.058722,-0.460528 1.058722,-1.182582 -2e-6,-0.362734 -0.197471,-0.637002 -0.687138,-0.637002 z m 4.049092,0 c -0.56363,-3e-6 -1.052823,0.461709 -1.052823,1.194379 0,0.383971 0.205139,0.625205 0.684187,0.625205 0.549588,2e-6 1.055772,-0.460528 1.055772,-1.182582 0,-0.362734 -0.197588,-0.637002 -0.687136,-0.637002 z m 5.455804,0 c -0.563631,-3e-6 -1.052824,0.461709 -1.052824,1.194379 0,0.383971 0.20514,0.625205 0.684188,0.625205 0.549477,2e-6 1.055771,-0.460528 1.055771,-1.182582 2e-6,-0.362734 -0.197587,-0.637002 -0.687135,-0.637002 z m -2.940237,0.0029 c -0.767938,0 -1.123599,0.611757 -1.123599,1.274003 2e-6,0.373356 0.145212,0.54853 0.412871,0.54853 0.327584,-2e-6 0.549826,-0.274855 0.687136,-0.524937 l 0.03834,0.0029 c -0.05285,0.12327 -0.119851,0.303166 -0.144506,0.415821 -0.0775,0.33466 -0.252913,0.439414 -0.583919,0.439414 -0.320622,2e-6 -0.489548,-0.07373 -0.489548,-0.07373 l -0.09732,0.383381 c 0.137307,0.04577 0.310006,0.07373 0.507242,0.07373 0.683362,2e-6 0.990773,-0.287122 1.082312,-0.76971 l 0.330298,-1.716367 c -0.197232,-0.03881 -0.407917,-0.05308 -0.619308,-0.05308 z m 3.878045,0.03244 -0.06193,0.347992 h 0.185793 c 0.04234,3e-6 0.08552,-0.01769 0.08552,-0.01769 -1e-6,0 -0.02784,0.05273 -0.03834,0.109116 L 54.72469,53.19379 c -0.06346,0.341739 0.0394,0.583919 0.377483,0.583919 0.334665,-2e-6 0.563983,-0.273321 0.722526,-0.586868 l 0.03539,0.0029 c -0.105577,0.267658 -0.150522,0.436936 -0.168099,0.542631 h 0.427618 c 0.03527,-0.211388 0.107582,-0.595125 0.153353,-0.834591 l 0.173995,-0.914215 h -0.695984 l -0.06488,0.347992 h 0.188742 c 0.04223,2e-6 0.08847,-0.01769 0.08847,-0.01769 -10e-7,0 -0.03067,0.05214 -0.04129,0.112065 -0.0775,0.408506 -0.392109,0.958452 -0.628154,0.958452 -0.112657,2e-6 -0.148398,-0.08894 -0.106167,-0.303755 l 0.209384,-1.097059 z m -3.954721,0.32145 c 0.0775,10e-7 0.141085,0.0094 0.19759,0.02359 l -0.02065,0.112065 c -0.07043,0.369815 -0.384089,0.943707 -0.634052,0.943707 -0.08812,2e-6 -0.135658,-0.06925 -0.135658,-0.241825 1e-6,-0.366275 0.187679,-0.83754 0.592765,-0.83754 z m -6.555811,0.02654 c 0.204316,3e-6 0.28901,0.10888 0.28901,0.309654 -3e-6,0.391048 -0.217407,0.74022 -0.530835,0.74022 -0.204315,0 -0.283112,-0.119497 -0.283112,-0.309654 0,-0.348702 0.197352,-0.74022 0.524937,-0.74022 z m 4.05204,0 c 0.204314,3e-6 0.289011,0.10888 0.289011,0.309654 -2e-6,0.391048 -0.220357,0.74022 -0.533785,0.74022 -0.204311,0 -0.280162,-0.119497 -0.280162,-0.309654 -2e-6,-0.348702 0.197351,-0.74022 0.524936,-0.74022 z m 5.455804,0 c 0.204314,3e-6 0.28901,0.10888 0.28901,0.309654 -2e-6,0.391048 -0.220356,0.74022 -0.533785,0.74022 -0.20431,0 -0.280162,-0.119497 -0.280162,-0.309654 -10e-7,-0.348702 0.197352,-0.74022 0.524937,-0.74022 z m 3.960618,0 c 0.08458,3e-6 0.135658,0.06924 0.135658,0.241825 -3e-6,0.366275 -0.18827,0.840489 -0.589817,0.840489 -0.06346,-2e-6 -0.13837,-0.01486 -0.194639,-0.03244 l 0.02064,-0.112065 c 0.07043,-0.362737 0.378073,-0.937809 0.628154,-0.937809 z"
           id="path2854"
           style="fill:#cf2027;fill-opacity:1;fill-rule:evenodd;stroke:none;stroke-width:0.44426882" />
      </g>
    </g>
  </g>
</svg>
